<?xml version="1.0" encoding="UTF-8" standalone="no"?><!DOCTYPE svg PUBLIC "-//W3C//DTD SVG 1.1//EN" "http://www.w3.org/Graphics/SVG/1.1/DTD/svg11.dtd"><svg width="100%" height="100%" viewBox="0 0 1492 498" version="1.1" xmlns="http://www.w3.org/2000/svg" xmlns:xlink="http://www.w3.org/1999/xlink" xml:space="preserve" xmlns:serif="http://www.serif.com/" style="fill-rule:evenodd;clip-rule:evenodd;stroke-linecap:round;stroke-linejoin:round;stroke-miterlimit:1.5;"><rect id="ArtBoard1" x="0" y="0" width="1491.59" height="497.419" style="fill:none;"/><g id="Ebene1"><path d="M108.727,139.459c-107.873,265.483 143.253,298.644 174.335,298.298c77.248,-0.862 146.687,-53.614 151.755,-79.688c-63.929,41.698 -90.641,4.479 -84.624,6.935c32.84,13.403 97.501,-9.317 102.274,-41.701c19.98,-45.647 2.832,-201.197 -98.359,-202.43c-74.583,-0.908 -94.641,47.855 -110.276,62.366c-75.946,84.122 -107.158,45.745 -113.783,41.895c-30.734,-36.892 -1.844,-61.868 14.671,-85.675c88.198,-4.098 90.013,-60.501 88.879,-63.598c-58.154,-10.702 -89.944,14.298 -89.944,14.298c0,0 -44.646,-25.235 -78.178,-20.743c-5.396,1.746 -17.119,52.826 43.25,70.043Zm249.02,150.204c4.046,0 7.331,5.327 7.331,11.889c0,6.562 -3.285,11.889 -7.331,11.889c-4.046,0 -7.331,-5.327 -7.331,-11.889c0,-6.562 3.285,-11.889 7.331,-11.889Z" style="fill:#fff;stroke:#fff;stroke-opacity:0;stroke-width:1px;"/></g><path d="M652.134,321.884l-33.833,0l-83.023,-134.524l-0.924,0l0.577,7.506c1.078,14.318 1.617,27.405 1.617,39.26l0,87.758l-25.057,0l0,-168.819l33.486,0l82.793,133.832l0.693,0c-0.154,-1.771 -0.462,-8.218 -0.924,-19.342c-0.462,-11.124 -0.693,-19.803 -0.693,-26.039l0,-88.451l25.288,0l0,168.819Z" style="fill:#fff;fill-rule:nonzero;"/><path d="M801.439,321.884l-16.859,-46.881l-64.548,0l-16.513,46.881l-29.099,0l63.163,-169.511l30.023,0l63.162,169.511l-29.329,0Zm-24.134,-70.668l-15.819,-45.958c-1.155,-3.079 -2.752,-7.929 -4.792,-14.549c-2.04,-6.62 -3.445,-11.47 -4.215,-14.549c-2.079,9.468 -5.119,19.822 -9.122,31.061l-15.242,43.995l49.19,0Z" style="fill:#fff;fill-rule:nonzero;"/><path d="M926.032,321.884l-48.96,-140.99l-0.923,0c1.308,20.939 1.963,40.569 1.963,58.89l0,82.1l-25.058,0l0,-168.819l38.914,0l46.881,134.293l0.693,0l48.267,-134.293l39.029,0l0,168.819l-26.558,0l0,-83.485c0,-8.391 0.212,-19.323 0.635,-32.794c0.424,-13.472 0.789,-21.632 1.097,-24.48l-0.924,0l-50.691,140.759l-24.365,0Z" style="fill:#fff;fill-rule:nonzero;"/><path d="M1221.18,237.244c0,27.482 -6.87,48.844 -20.611,64.086c-13.741,15.243 -33.198,22.864 -58.371,22.864c-25.48,0 -45.053,-7.564 -58.717,-22.69c-13.664,-15.127 -20.496,-36.624 -20.496,-64.491c0,-27.867 6.87,-49.268 20.612,-64.202c13.741,-14.934 33.351,-22.401 58.832,-22.401c25.096,0 44.495,7.582 58.198,22.747c13.702,15.166 20.553,36.528 20.553,64.087Zm-128.865,0c0,20.785 4.195,36.547 12.586,47.285c8.391,10.739 20.823,16.109 37.297,16.109c16.397,0 28.772,-5.312 37.124,-15.935c8.353,-10.624 12.529,-26.443 12.529,-47.459c0,-20.708 -4.138,-36.412 -12.413,-47.112c-8.276,-10.701 -20.612,-16.051 -37.009,-16.051c-16.551,0 -29.041,5.35 -37.47,16.051c-8.43,10.7 -12.644,26.404 -12.644,47.112Z" style="fill:#fff;fill-rule:nonzero;"/><path d="M535.082,405.456l16.775,-31.442l7.914,0l-20.99,38.497l0,24.388l-7.399,0l0,-24.044l-20.947,-38.841l8,0l16.647,31.442Z" style="fill:#fff;fill-rule:nonzero;"/><path d="M603.645,413.285c0,7.685 -1.936,13.685 -5.807,18.001c-3.871,4.316 -9.219,6.473 -16.044,6.473c-4.215,0 -7.957,-0.989 -11.226,-2.968c-3.269,-1.978 -5.793,-4.817 -7.571,-8.516c-1.778,-3.699 -2.667,-8.029 -2.667,-12.99c0,-7.685 1.922,-13.671 5.764,-17.958c3.843,-4.287 9.176,-6.431 16.001,-6.431c6.596,0 11.836,2.194 15.722,6.581c3.885,4.388 5.828,10.323 5.828,17.808Zm-35.916,0c0,6.022 1.204,10.61 3.613,13.764c2.409,3.154 5.95,4.732 10.624,4.732c4.674,0 8.223,-1.57 10.646,-4.71c2.423,-3.14 3.635,-7.736 3.635,-13.786c0,-5.993 -1.212,-10.546 -3.635,-13.657c-2.423,-3.111 -6,-4.667 -10.732,-4.667c-4.674,0 -8.201,1.534 -10.581,4.603c-2.38,3.068 -3.57,7.642 -3.57,13.721Z" style="fill:#fff;fill-rule:nonzero;"/><path d="M622.872,389.756l0,30.583c0,3.843 0.874,6.71 2.624,8.603c1.749,1.892 4.487,2.839 8.215,2.839c4.932,0 8.538,-1.348 10.818,-4.044c2.28,-2.695 3.42,-7.097 3.42,-13.205l0,-24.776l7.14,0l0,47.143l-5.893,0l-1.032,-6.323l-0.387,0c-1.463,2.323 -3.492,4.101 -6.087,5.334c-2.595,1.233 -5.556,1.849 -8.882,1.849c-5.735,0 -10.029,-1.362 -12.883,-4.086c-2.853,-2.724 -4.279,-7.083 -4.279,-13.076l0,-30.841l7.226,0Z" style="fill:#fff;fill-rule:nonzero;"/><path d="M691.736,388.896c2.094,0 3.972,0.172 5.635,0.516l-0.989,6.624c-1.95,-0.43 -3.671,-0.645 -5.162,-0.645c-3.814,0 -7.076,1.549 -9.785,4.646c-2.71,3.097 -4.065,6.953 -4.065,11.57l0,25.292l-7.14,0l0,-47.143l5.892,0l0.818,8.732l0.344,0c1.749,-3.068 3.857,-5.434 6.323,-7.097c2.466,-1.663 5.176,-2.495 8.129,-2.495Z" style="fill:#fff;fill-rule:nonzero;"/><rect x="729.072" y="369.97" width="7.14" height="66.929" style="fill:#fff;fill-rule:nonzero;"/><path d="M792.043,413.285c0,7.685 -1.935,13.685 -5.806,18.001c-3.872,4.316 -9.22,6.473 -16.044,6.473c-4.216,0 -7.958,-0.989 -11.227,-2.968c-3.269,-1.978 -5.792,-4.817 -7.57,-8.516c-1.778,-3.699 -2.667,-8.029 -2.667,-12.99c0,-7.685 1.921,-13.671 5.764,-17.958c3.842,-4.287 9.176,-6.431 16.001,-6.431c6.595,0 11.836,2.194 15.721,6.581c3.886,4.388 5.828,10.323 5.828,17.808Zm-35.916,0c0,6.022 1.205,10.61 3.613,13.764c2.409,3.154 5.951,4.732 10.625,4.732c4.674,0 8.222,-1.57 10.646,-4.71c2.423,-3.14 3.634,-7.736 3.634,-13.786c0,-5.993 -1.211,-10.546 -3.634,-13.657c-2.424,-3.111 -6.001,-4.667 -10.732,-4.667c-4.674,0 -8.202,1.534 -10.582,4.603c-2.38,3.068 -3.57,7.642 -3.57,13.721Z" style="fill:#fff;fill-rule:nonzero;"/><path d="M823.4,437.759c-6.825,0 -12.108,-2.1 -15.85,-6.301c-3.742,-4.201 -5.613,-10.144 -5.613,-17.829c0,-7.886 1.899,-13.979 5.699,-18.281c3.799,-4.301 9.212,-6.452 16.237,-6.452c2.266,0 4.531,0.244 6.796,0.731c2.266,0.488 4.044,1.061 5.334,1.721l-2.194,6.065c-1.577,-0.631 -3.297,-1.154 -5.161,-1.57c-1.864,-0.416 -3.513,-0.624 -4.947,-0.624c-9.577,0 -14.366,6.108 -14.366,18.324c0,5.792 1.168,10.237 3.505,13.334c2.337,3.097 5.8,4.645 10.388,4.645c3.929,0 7.958,-0.845 12.087,-2.537l0,6.323c-3.154,1.634 -7.126,2.451 -11.915,2.451Z" style="fill:#fff;fill-rule:nonzero;"/><path d="M875.489,436.899l-1.419,-6.71l-0.344,0c-2.352,2.954 -4.696,4.954 -7.033,6c-2.337,1.047 -5.255,1.57 -8.753,1.57c-4.674,0 -8.337,-1.204 -10.99,-3.613c-2.652,-2.408 -3.979,-5.835 -3.979,-10.28c0,-9.52 7.614,-14.51 22.84,-14.969l8.001,-0.258l0,-2.925c0,-3.699 -0.796,-6.43 -2.387,-8.194c-1.592,-1.763 -4.137,-2.645 -7.635,-2.645c-3.929,0 -8.374,1.204 -13.334,3.613l-2.194,-5.463c2.323,-1.261 4.868,-2.251 7.635,-2.967c2.767,-0.717 5.541,-1.076 8.323,-1.076c5.62,0 9.785,1.248 12.495,3.742c2.71,2.495 4.065,6.495 4.065,12.001l0,32.174l-5.291,0Zm-16.13,-5.032c4.445,0 7.936,-1.219 10.474,-3.657c2.538,-2.437 3.807,-5.849 3.807,-10.237l0,-4.258l-7.14,0.301c-5.678,0.201 -9.772,1.083 -12.281,2.645c-2.509,1.563 -3.763,3.993 -3.763,7.291c0,2.581 0.781,4.545 2.344,5.893c1.563,1.348 3.749,2.022 6.559,2.022Z" style="fill:#fff;fill-rule:nonzero;"/><rect x="895.491" y="369.97" width="7.14" height="66.929" style="fill:#fff;fill-rule:nonzero;"/><path d="M972.915,436.899l0,-30.496c0,-3.843 -0.875,-6.71 -2.624,-8.603c-1.749,-1.893 -4.488,-2.839 -8.216,-2.839c-4.932,0 -8.545,1.334 -10.839,4c-2.294,2.667 -3.441,7.069 -3.441,13.205l0,24.733l-7.14,0l0,-47.143l5.806,0l1.162,6.452l0.344,0c1.462,-2.322 3.513,-4.122 6.151,-5.398c2.638,-1.276 5.577,-1.914 8.818,-1.914c5.677,0 9.95,1.369 12.818,4.108c2.867,2.738 4.301,7.119 4.301,13.141l0,30.754l-7.14,0Z" style="fill:#fff;fill-rule:nonzero;"/><path d="M1023.71,436.899l-1.419,-6.71l-0.344,0c-2.352,2.954 -4.696,4.954 -7.033,6c-2.337,1.047 -5.255,1.57 -8.753,1.57c-4.674,0 -8.337,-1.204 -10.99,-3.613c-2.652,-2.408 -3.979,-5.835 -3.979,-10.28c0,-9.52 7.614,-14.51 22.84,-14.969l8.001,-0.258l0,-2.925c0,-3.699 -0.796,-6.43 -2.387,-8.194c-1.592,-1.763 -4.137,-2.645 -7.635,-2.645c-3.929,0 -8.373,1.204 -13.334,3.613l-2.194,-5.463c2.323,-1.261 4.868,-2.251 7.635,-2.967c2.767,-0.717 5.541,-1.076 8.323,-1.076c5.62,0 9.785,1.248 12.495,3.742c2.71,2.495 4.065,6.495 4.065,12.001l0,32.174l-5.291,0Zm-16.13,-5.032c4.445,0 7.936,-1.219 10.474,-3.657c2.538,-2.437 3.807,-5.849 3.807,-10.237l0,-4.258l-7.14,0.301c-5.678,0.201 -9.772,1.083 -12.281,2.645c-2.509,1.563 -3.763,3.993 -3.763,7.291c0,2.581 0.781,4.545 2.344,5.893c1.563,1.348 3.749,2.022 6.559,2.022Z" style="fill:#fff;fill-rule:nonzero;"/><path d="M1103.8,436.899l0,-30.668c0,-3.757 -0.803,-6.574 -2.408,-8.453c-1.606,-1.878 -4.101,-2.817 -7.485,-2.817c-4.444,0 -7.728,1.276 -9.85,3.828c-2.122,2.552 -3.183,6.481 -3.183,11.786l0,26.324l-7.14,0l0,-30.668c0,-3.757 -0.803,-6.574 -2.409,-8.453c-1.606,-1.878 -4.115,-2.817 -7.527,-2.817c-4.473,0 -7.75,1.341 -9.829,4.022c-2.079,2.681 -3.118,7.076 -3.118,13.183l0,24.733l-7.14,0l0,-47.143l5.806,0l1.162,6.452l0.344,0c1.348,-2.294 3.247,-4.086 5.699,-5.376c2.452,-1.291 5.198,-1.936 8.237,-1.936c7.37,0 12.187,2.667 14.453,8.001l0.344,0c1.405,-2.466 3.441,-4.416 6.108,-5.85c2.667,-1.434 5.706,-2.151 9.119,-2.151c5.333,0 9.326,1.369 11.979,4.108c2.652,2.738 3.979,7.119 3.979,13.141l0,30.754l-7.141,0Z" style="fill:#fff;fill-rule:nonzero;"/><path d="M1145.57,437.759c-6.968,0 -12.466,-2.122 -16.495,-6.366c-4.029,-4.244 -6.044,-10.136 -6.044,-17.678c0,-7.599 1.871,-13.635 5.614,-18.109c3.742,-4.473 8.767,-6.71 15.076,-6.71c5.907,0 10.581,1.943 14.022,5.829c3.441,3.885 5.162,9.011 5.162,15.377l0,4.516l-32.475,0c0.143,5.535 1.541,9.736 4.193,12.603c2.653,2.868 6.388,4.301 11.205,4.301c5.076,0 10.094,-1.061 15.055,-3.183l0,6.366c-2.523,1.09 -4.911,1.872 -7.162,2.345c-2.251,0.473 -4.968,0.709 -8.151,0.709Zm-1.935,-42.884c-3.785,0 -6.804,1.233 -9.055,3.699c-2.251,2.466 -3.577,5.879 -3.978,10.237l24.646,0c0,-4.502 -1.003,-7.95 -3.011,-10.344c-2.007,-2.395 -4.874,-3.592 -8.602,-3.592Z" style="fill:#fff;fill-rule:nonzero;"/><path d="M1228.37,424.038c0,4.387 -1.634,7.771 -4.903,10.151c-3.27,2.38 -7.858,3.57 -13.765,3.57c-6.251,0 -11.126,-0.989 -14.624,-2.968l0,-6.624c2.265,1.147 4.695,2.051 7.29,2.71c2.596,0.66 5.098,0.99 7.506,0.99c3.728,0 6.596,-0.595 8.603,-1.785c2.007,-1.191 3.011,-3.004 3.011,-5.442c0,-1.835 -0.796,-3.405 -2.387,-4.71c-1.592,-1.304 -4.696,-2.846 -9.313,-4.624c-4.387,-1.634 -7.506,-3.061 -9.355,-4.279c-1.85,-1.219 -3.226,-2.603 -4.129,-4.151c-0.904,-1.549 -1.355,-3.398 -1.355,-5.549c0,-3.842 1.562,-6.875 4.688,-9.097c3.126,-2.223 7.413,-3.334 12.861,-3.334c5.076,0 10.037,1.033 14.883,3.097l-2.538,5.807c-4.732,-1.95 -9.019,-2.925 -12.861,-2.925c-3.384,0 -5.936,0.531 -7.656,1.592c-1.721,1.061 -2.581,2.523 -2.581,4.387c0,1.262 0.322,2.337 0.968,3.226c0.645,0.889 1.684,1.735 3.118,2.538c1.434,0.803 4.187,1.964 8.259,3.484c5.591,2.036 9.369,4.086 11.334,6.151c1.964,2.064 2.946,4.659 2.946,7.785Z" style="fill:#fff;fill-rule:nonzero;"/><path d="M1259.9,437.759c-6.968,0 -12.467,-2.122 -16.496,-6.366c-4.029,-4.244 -6.043,-10.136 -6.043,-17.678c0,-7.599 1.871,-13.635 5.613,-18.109c3.742,-4.473 8.768,-6.71 15.076,-6.71c5.907,0 10.582,1.943 14.023,5.829c3.441,3.885 5.161,9.011 5.161,15.377l0,4.516l-32.475,0c0.144,5.535 1.541,9.736 4.194,12.603c2.652,2.868 6.387,4.301 11.205,4.301c5.075,0 10.094,-1.061 15.055,-3.183l0,6.366c-2.524,1.09 -4.911,1.872 -7.162,2.345c-2.251,0.473 -4.968,0.709 -8.151,0.709Zm-1.936,-42.884c-3.785,0 -6.803,1.233 -9.054,3.699c-2.251,2.466 -3.577,5.879 -3.979,10.237l24.647,0c0,-4.502 -1.004,-7.95 -3.011,-10.344c-2.007,-2.395 -4.875,-3.592 -8.603,-3.592Z" style="fill:#fff;fill-rule:nonzero;"/><path d="M1310.91,388.896c2.093,0 3.971,0.172 5.634,0.516l-0.989,6.624c-1.95,-0.43 -3.67,-0.645 -5.161,-0.645c-3.814,0 -7.076,1.549 -9.786,4.646c-2.71,3.097 -4.065,6.953 -4.065,11.57l0,25.292l-7.14,0l0,-47.143l5.893,0l0.817,8.732l0.344,0c1.749,-3.068 3.857,-5.434 6.323,-7.097c2.466,-1.663 5.176,-2.495 8.13,-2.495Z" style="fill:#fff;fill-rule:nonzero;"/><path d="M1335.69,436.899l-17.893,-47.143l7.656,0l10.151,27.959c2.294,6.538 3.642,10.782 4.044,12.732l0.344,0c0.315,-1.52 1.312,-4.667 2.989,-9.441c1.678,-4.775 5.441,-15.191 11.291,-31.25l7.657,0l-17.894,47.143l-8.345,0Z" style="fill:#fff;fill-rule:nonzero;"/><path d="M1389.41,437.759c-6.968,0 -12.467,-2.122 -16.496,-6.366c-4.028,-4.244 -6.043,-10.136 -6.043,-17.678c0,-7.599 1.871,-13.635 5.613,-18.109c3.742,-4.473 8.768,-6.71 15.076,-6.71c5.908,0 10.582,1.943 14.023,5.829c3.441,3.885 5.161,9.011 5.161,15.377l0,4.516l-32.475,0c0.144,5.535 1.542,9.736 4.194,12.603c2.653,2.868 6.388,4.301 11.205,4.301c5.076,0 10.094,-1.061 15.055,-3.183l0,6.366c-2.524,1.09 -4.911,1.872 -7.162,2.345c-2.251,0.473 -4.968,0.709 -8.151,0.709Zm-1.936,-42.884c-3.785,0 -6.803,1.233 -9.054,3.699c-2.251,2.466 -3.577,5.879 -3.979,10.237l24.647,0c0,-4.502 -1.004,-7.95 -3.011,-10.344c-2.007,-2.395 -4.875,-3.592 -8.603,-3.592Z" style="fill:#fff;fill-rule:nonzero;"/><path d="M1440.43,388.896c2.093,0 3.971,0.172 5.635,0.516l-0.99,6.624c-1.95,-0.43 -3.67,-0.645 -5.161,-0.645c-3.814,0 -7.076,1.549 -9.786,4.646c-2.71,3.097 -4.065,6.953 -4.065,11.57l0,25.292l-7.14,0l0,-47.143l5.893,0l0.817,8.732l0.344,0c1.75,-3.068 3.857,-5.434 6.323,-7.097c2.466,-1.663 5.176,-2.495 8.13,-2.495Z" style="fill:#fff;fill-rule:nonzero;"/></svg>